<svg width="81" height="81" viewBox="0 0 81 81" fill="none" xmlns="http://www.w3.org/2000/svg">
<rect x="13.5" y="12.5" width="55" height="55" rx="8.5" fill="#732BF0" stroke="black" stroke-width="3"/>
<rect x="22" y="31" width="8" height="8" rx="2" fill="white"/>
<rect x="42" y="21" width="8" height="8" rx="2" fill="white"/>
<rect x="42" y="41" width="8" height="8" rx="2" fill="white"/>
<rect x="52" y="51" width="8" height="8" rx="2" fill="white"/>
<path d="M22 53C22 51.8954 22.8954 51 24 51H30C31.1046 51 32 50.1046 32 49V43C32 41.8954 32.8954 41 34 41H38C39.1046 41 40 41.8954 40 43V49C40 50.1046 40.8954 51 42 51H48C49.1046 51 50 51.8954 50 53V57C50 58.1046 49.1046 59 48 59H24C22.8954 59 22 58.1046 22 57V53Z" fill="black"/>
<rect x="22" y="41" width="8" height="8" rx="2" fill="black"/>
<rect x="52" y="31" width="8" height="18" rx="2" fill="black"/>
<rect x="42" y="31" width="8" height="8" rx="2" fill="black"/>
<rect x="52" y="21" width="8" height="8" rx="2" fill="black"/>
<path d="M22 23C22 21.8954 22.8954 21 24 21H32H38C39.1046 21 40 21.8954 40 23V29V37C40 38.1046 39.1046 39 38 39H34C32.8954 39 32 38.1046 32 37V31C32 29.8954 31.1046 29 30 29H24C22.8954 29 22 28.1046 22 27V23Z" fill="black"/>
</svg>
