<svg width="81" height="81" viewBox="0 0 81 81" fill="none" xmlns="http://www.w3.org/2000/svg">
<rect x="13.5" y="12.5" width="55" height="55" rx="8.5" fill="#E33B3B" stroke="black" stroke-width="3"/>
<path d="M54.5 15L47.1429 43L33 35.3636L54.5 15Z" fill="white"/>
<path d="M47.5 43.5L66.5 54L41 65.5L47.5 43.5Z" fill="white"/>
<path d="M15 27L67 53" stroke="black" stroke-width="2" stroke-linecap="round"/>
<path d="M41 66L67 53" stroke="black" stroke-width="2" stroke-linecap="round"/>
<path d="M41 66L54 14" stroke="black" stroke-width="2" stroke-linecap="round"/>
<path d="M15 53L54 14" stroke="black" stroke-width="2" stroke-linecap="round"/>
<circle cx="41" cy="14" r="3" fill="#E33B3B"/>
<circle cx="28" cy="14" r="3" fill="#E33B3B"/>
<circle cx="54" cy="14" r="3" fill="black"/>
<circle cx="41" cy="66" r="3" fill="black"/>
<circle cx="67" cy="40" r="3" transform="rotate(-90 67 40)" fill="#E33B3B"/>
<circle cx="15" cy="40" r="3" transform="rotate(-90 15 40)" fill="#E33B3B"/>
<circle cx="28" cy="66" r="3" fill="#E33B3B"/>
<ellipse cx="67" cy="53" rx="3" ry="3" transform="rotate(-90 67 53)" fill="black"/>
<ellipse cx="15" cy="53" rx="3" ry="3" transform="rotate(-90 15 53)" fill="black"/>
<circle cx="54" cy="66" r="3" fill="#E33B3B"/>
<circle cx="67" cy="27" r="3" transform="rotate(-90 67 27)" fill="#E33B3B"/>
<ellipse cx="15" cy="27" rx="3" ry="3" transform="rotate(-90 15 27)" fill="black"/>
<rect x="13.5" y="12.5" width="55" height="55" rx="8.5" stroke="black" stroke-width="3"/>
</svg>
