<svg width="81" height="81" viewBox="0 0 81 81" fill="none" xmlns="http://www.w3.org/2000/svg">
<rect x="13.5" y="12.5" width="55" height="55" rx="8.5" fill="#FFD60A" stroke="black" stroke-width="3"/>
<path d="M40 20.5774C40.6188 20.2201 41.3812 20.2201 42 20.5774L49.5263 24.9226C50.1451 25.2799 50.5263 25.9402 50.5263 26.6547V35.3453C50.5263 36.0598 50.1451 36.7201 49.5263 37.0774L42 41.4226C41.3812 41.7799 40.6188 41.7799 40 41.4226L32.4737 37.0774C31.8549 36.7201 31.4737 36.0598 31.4737 35.3453V26.6547C31.4737 25.9402 31.8549 25.2799 32.4737 24.9226L40 20.5774Z" fill="white"/>
<path d="M29 39.5774C29.6188 39.2201 30.3812 39.2201 31 39.5774L38.5263 43.9226C39.1451 44.2799 39.5263 44.9402 39.5263 45.6547V54.3453C39.5263 55.0598 39.1451 55.7201 38.5263 56.0774L31 60.4226C30.3812 60.7799 29.6188 60.7799 29 60.4226L21.4737 56.0774C20.8549 55.7201 20.4737 55.0598 20.4737 54.3453V45.6547C20.4737 44.9402 20.8549 44.2799 21.4737 43.9226L29 39.5774Z" fill="black"/>
<path d="M51 39.5774C51.6188 39.2201 52.3812 39.2201 53 39.5774L60.5263 43.9226C61.1451 44.2799 61.5263 44.9402 61.5263 45.6547V54.3453C61.5263 55.0598 61.1451 55.7201 60.5263 56.0774L53 60.4226C52.3812 60.7799 51.6188 60.7799 51 60.4226L43.4737 56.0774C42.8549 55.7201 42.4737 55.0598 42.4737 54.3453V45.6547C42.4737 44.9402 42.8549 44.2799 43.4737 43.9226L51 39.5774Z" fill="black"/>
</svg>
